<svg xmlns="http://www.w3.org/2000/svg" width="128" height="192" viewBox="0 0 64 96">
<defs><linearGradient id="m" x1="0" y1="0" x2="1" y2="1"><stop offset="0" stop-color="#d6dbe2"/><stop offset="1" stop-color="#555a62"/></linearGradient><linearGradient id="w" x1="0" y1="0" x2="1" y2="1"><stop offset="0" stop-color="#8a5e38"/><stop offset="1" stop-color="#3a2414"/></linearGradient></defs><path d="M29 18 L35 18 L35 92 L29 92 Z" fill="url(#w)" stroke="#0c0a08" stroke-width="2.5" stroke-linejoin="round" stroke-linecap="round" /><path d="M35 12 Q60 4 60 40 Q48 34 35 36 Z" fill="url(#m)" stroke="#0c0a08" stroke-width="2.5" stroke-linejoin="round" stroke-linecap="round" /><path d="M40 11 Q58 8 57 36" fill="none" stroke="#ffffff" stroke-width="1.5" stroke-linejoin="round" stroke-linecap="round" /><path d="M29 18 L22 22 L29 28 Z" fill="url(#m)" stroke="#0c0a08" stroke-width="2.0" stroke-linejoin="round" stroke-linecap="round" /><path d="M28 10 L36 10 L36 40 L28 40 Z" fill="url(#m)" stroke="#0c0a08" stroke-width="2.0" stroke-linejoin="round" stroke-linecap="round" /><path d="M29 72 L35 75" fill="none" stroke="#1a0e06" stroke-width="1.5" stroke-linejoin="round" stroke-linecap="round" /><path d="M29 77 L35 80" fill="none" stroke="#1a0e06" stroke-width="1.5" stroke-linejoin="round" stroke-linecap="round" /><path d="M29 82 L35 85" fill="none" stroke="#1a0e06" stroke-width="1.5" stroke-linejoin="round" stroke-linecap="round" /><path d="M29 87 L35 90" fill="none" stroke="#1a0e06" stroke-width="1.5" stroke-linejoin="round" stroke-linecap="round" />
</svg>
