<svg xmlns="http://www.w3.org/2000/svg" width="128" height="128" viewBox="0 0 64 64">
<defs><linearGradient id="b" x1="0" y1="0" x2="1" y2="1"><stop offset="0" stop-color="#f2ead2"/><stop offset="1" stop-color="#8a7c5a"/></linearGradient></defs><path d="M32 4 L32 12" fill="none" stroke="#6a4a2a" stroke-width="2.5" stroke-linejoin="round" stroke-linecap="round" /><path d="M18 30 Q18 10 32 10 Q46 10 46 30 L42 38 L42 48 L22 48 L22 38 Z" fill="url(#b)" stroke="#0c0a08" stroke-width="2.5" stroke-linejoin="round" stroke-linecap="round" /><path d="M23 26 Q27 21 30 27 Q27 32 23 26 Z M41 26 Q37 21 34 27 Q37 32 41 26 Z" fill="#1a120a" stroke="#0c0a08" stroke-width="1.0" stroke-linejoin="round" stroke-linecap="round" /><path d="M30 34 L32 30 L34 34 Z" fill="#1a120a" stroke="#0c0a08" stroke-width="1.0" stroke-linejoin="round" stroke-linecap="round" /><path d="M26 42 L26 48 M30 42 L30 48 M34 42 L34 48 M38 42 L38 48" fill="none" stroke="#5a4a30" stroke-width="1.2" stroke-linejoin="round" stroke-linecap="round" /><path d="M10 56 L54 50 M10 50 L54 56" fill="none" stroke="#e8dcc0" stroke-width="4.0" stroke-linejoin="round" stroke-linecap="round" />
</svg>
