<svg xmlns="http://www.w3.org/2000/svg" width="128" height="192" viewBox="0 0 64 96">
<defs><linearGradient id="g" x1="0" y1="0" x2="1" y2="1"><stop offset="0" stop-color="#a0714a"/><stop offset="1" stop-color="#46301e"/></linearGradient></defs><path d="M20 10 L27 6 Q32 13 37 6 L44 10 L56 18 L60 34 L52 38 L50 30 L50 86 Q32 92 14 86 L14 30 L12 38 L4 34 L8 18 Z" fill="url(#g)" stroke="#0c0a08" stroke-width="3.0" stroke-linejoin="round" stroke-linecap="round" /><path d="M18 32 L18 82 M46 32 L46 82" fill="none" stroke="#d6a86a" stroke-width="1.5" stroke-linejoin="round" stroke-linecap="round" stroke-dasharray="3 3"/><path d="M14 62 L50 62 L50 70 L14 70 Z" fill="#46301e" stroke="#0c0a08" stroke-width="2.0" stroke-linejoin="round" stroke-linecap="round" /><path d="M28 61 L36 61 L36 71 L28 71 Z" fill="#d8b060" stroke="#0c0a08" stroke-width="1.5" stroke-linejoin="round" stroke-linecap="round" /><path d="M26 10 L32 26 L38 10" fill="none" stroke="#d6a86a" stroke-width="1.5" stroke-linejoin="round" stroke-linecap="round" />
</svg>
