<svg xmlns="http://www.w3.org/2000/svg" width="128" height="128" viewBox="0 0 64 64">
<defs><linearGradient id="r" x1="0" y1="0" x2="1" y2="1"><stop offset="0" stop-color="#ff6a52"/><stop offset="1" stop-color="#5a0a06"/></linearGradient></defs><path d="M32 4 L54 18 L54 46 L32 60 L10 46 L10 18 Z" fill="url(#r)" stroke="#0c0a08" stroke-width="3.0" stroke-linejoin="round" stroke-linecap="round" /><path d="M32 4 L32 14 M54 18 L44 22 M54 46 L44 42 M32 60 L32 50 M10 46 L20 42 M10 18 L20 22" fill="none" stroke="#ffb0a0" stroke-width="1.2" stroke-linejoin="round" stroke-linecap="round" /><path d="M32 14 L44 22 L44 42 L32 50 L20 42 L20 22 Z" fill="none" stroke="#ffb0a0" stroke-width="1.2" stroke-linejoin="round" stroke-linecap="round" /><path d="M20 22 L40 22 L40 32 L20 32 Z" fill="#fff4f0" stroke="#0c0a08" stroke-width="1.5" stroke-linejoin="round" stroke-linecap="round" /><path d="M28 32 L32 32 L32 46 L28 46 Z" fill="#fff4f0" stroke="#0c0a08" stroke-width="1.5" stroke-linejoin="round" stroke-linecap="round" /><path d="M42 20 L48 16 M42 27 L50 27 M42 34 L48 38" fill="none" stroke="#fff4f0" stroke-width="2.0" stroke-linejoin="round" stroke-linecap="round" />
</svg>
